HIERARCHY
ROOT Hips
{
    OFFSET 0.0 0.0 0.0
    CHANNELS 6 Xposition Yposition Zposition Zrotation Xrotation Yrotation
    JOINT LeftUpLeg
    {
        OFFSET 13.410273499534632 0.0 0.0
        CHANNELS 3 Zrotation Xrotation Yrotation
        JOINT LeftLeg
        {
            OFFSET 0.0 0.0 -56.094232066151534
            CHANNELS 3 Zrotation Xrotation Yrotation
            JOINT LeftFoot
            {
                OFFSET 0.0 0.0 -45.96524922349708
                CHANNELS 3 Zrotation Xrotation Yrotation
                JOINT LeftToeBase
                {
                    OFFSET 0.0 -12.58890924830986 0.0
                    CHANNELS 3 Zrotation Xrotation Yrotation
                    End Site
                    {
                        OFFSET 0 0 0
                    }
                }
            }
        }
    }
    JOINT RightUpLeg
    {
        OFFSET -13.410273499534632 0.0 0.0
        CHANNELS 3 Zrotation Xrotation Yrotation
        JOINT RightLeg
        {
            OFFSET 0.0 0.0 -56.094232066151534
            CHANNELS 3 Zrotation Xrotation Yrotation
            JOINT RightFoot
            {
                OFFSET 0.0 0.0 -45.96524922349708
                CHANNELS 3 Zrotation Xrotation Yrotation
                JOINT RightToeBase
                {
                    OFFSET 0.0 -12.58890924830986 0.0
                    CHANNELS 3 Zrotation Xrotation Yrotation
                    End Site
                    {
                        OFFSET 0 0 0
                    }
                }
            }
        }
    }
    JOINT Spine
    {
        OFFSET 0.0 0.0 11.438264188938387
        CHANNELS 3 Zrotation Xrotation Yrotation
        JOINT Spine1
        {
            OFFSET 0.0 0.0 11.32515320023272
            CHANNELS 3 Zrotation Xrotation Yrotation
            JOINT Spine2
            {
                OFFSET 0.0 0.0 11.325153200232721
                CHANNELS 3 Zrotation Xrotation Yrotation
                JOINT Spine3
                {
                    OFFSET 0.0 0.0 11.325153200232718
                    CHANNELS 3 Zrotation Xrotation Yrotation
                    JOINT Spine4
                    {
                        OFFSET 0.0 0.0 11.325153200232725
                        CHANNELS 3 Zrotation Xrotation Yrotation
                        JOINT RightShoulder
                        {
                            OFFSET -22.3137408536019 0.0 0.0
                            CHANNELS 3 Zrotation Xrotation Yrotation
                            JOINT RightArm
                            {
                                OFFSET -37.60343070973835 0.0 0.0
                                CHANNELS 3 Zrotation Xrotation Yrotation
                                JOINT RightForeArm
                                {
                                    OFFSET -34.72469502475529 0.0 0.0
                                    CHANNELS 3 Zrotation Xrotation Yrotation
                                    JOINT RightHand
                                    {
                                        OFFSET -13.768559344885913 0.0 0.0
                                        CHANNELS 3 Zrotation Xrotation Yrotation
                                        End Site
                                        {
                                            OFFSET 0 0 0
                                        }
                                    }
                                }
                            }
                        }
                        JOINT LeftShoulder
                        {
                            OFFSET 22.3137408536019 0.0 0.0
                            CHANNELS 3 Zrotation Xrotation Yrotation
                            JOINT LeftArm
                            {
                                OFFSET 37.60343070973835 0.0 0.0
                                CHANNELS 3 Zrotation Xrotation Yrotation
                                JOINT LeftForeArm
                                {
                                    OFFSET 34.72469502475529 0.0 0.0
                                    CHANNELS 3 Zrotation Xrotation Yrotation
                                    JOINT LeftHand
                                    {
                                        OFFSET 13.768559344885913 0.0 0.0
                                        CHANNELS 3 Zrotation Xrotation Yrotation
                                        End Site
                                        {
                                            OFFSET 0 0 0
                                        }
                                    }
                                }
                            }
                        }
                        JOINT Neck
                        {
                            OFFSET 0.0 0.0 11.325153137452572
                            CHANNELS 3 Zrotation Xrotation Yrotation
                            JOINT Head
                            {
                                OFFSET 0.0 0.0 24.84135453236996
                                CHANNELS 3 Zrotation Xrotation Yrotation
                                End Site
                                {
                                    OFFSET 0 0 0
                                }
                            }
                        }
                    }
                }
            }
        }
    }
}
MOTION
Frames: 7
Frame Time: 0.03333333333333333
60.53936247825624 8.766969618201255 475.92739448547366 -0.024651272483854843 -74.44972336558023 -3.2327729281559474 2.7821936790770923 -14.860484389652074 -2.3919052778953738 17.428493148990285 -14.63929266224415 13.380682421340467 -111.1311352677671 9.54166404439055e-15 81.61172266097057 0.0 0.0 0.0 -6.668336988995642 -18.937863868095626 8.588311325457886 -10.125254822818242 -7.147598792322838 -14.263420658784453 103.20548270683602 -6.3611093629270335e-15 -77.09284931396367 0.0 0.0 0.0 0.17452936463106775 -17.046655229536476 1.259901719301619 0.0 0.0 0.0 0.0 0.0 0.0 0.0 0.0 0.0 0.0 0.0 0.0 167.17672514244634 3.6159183658994962 -169.16290534871302 128.0449788514768 -1.0398505135475655e-14 6.8188783535309576e-15 -1.9600151806276734e-14 -63.97722288562549 -1.036712990624648e-14 0.0 0.0 0.0 173.29464348000818 0.616845499779943 -176.41883470898057 -41.18173570626624 2.056140764385135e-14 9.42358948928184e-15 -180.0 -44.12205291922496 -180.0 -3.1805546814635176e-15 1.3241718894150476e-31 -4.770832022195277e-15 -3.70948318004097 -1.0244239432273385e-14 -5.306245853008676e-16 0.0 0.0 0.0
60.53936247825624 8.766969618201255 475.92739448547366 -0.024651272483854843 -74.44972336558023 -3.2327729281559474 2.7821936790770923 -14.860484389652074 -2.3919052778953738 17.428493148990285 -14.63929266224415 13.380682421340467 -111.1311352677671 9.54166404439055e-15 81.61172266097057 0.0 0.0 0.0 -6.668336988995642 -18.937863868095626 8.588311325457886 -10.125254822818242 -7.147598792322838 -14.263420658784453 103.20548270683602 -6.3611093629270335e-15 -77.09284931396367 0.0 0.0 0.0 0.17452936463106775 -17.046655229536476 1.259901719301619 0.0 0.0 0.0 0.0 0.0 0.0 0.0 0.0 0.0 0.0 0.0 0.0 167.17672514244634 3.6159183658994962 -169.16290534871302 128.0449788514768 -1.0398505135475655e-14 6.8188783535309576e-15 -1.9600151806276734e-14 -63.97722288562549 -1.036712990624648e-14 0.0 0.0 0.0 173.29464348000818 0.616845499779943 -176.41883470898057 -41.18173570626624 2.056140764385135e-14 9.42358948928184e-15 -180.0 -44.12205291922496 -180.0 -3.1805546814635176e-15 1.3241718894150476e-31 -4.770832022195277e-15 -3.70948318004097 -1.0244239432273385e-14 -5.306245853008676e-16 0.0 0.0 0.0
60.53936247825624 8.766969618201255 475.92739448547366 -0.024651272483854843 -74.44972336558023 -3.2327729281559474 2.7821936790770923 -14.860484389652074 -2.3919052778953738 17.428493148990285 -14.63929266224415 13.380682421340467 -111.1311352677671 9.54166404439055e-15 81.61172266097057 0.0 0.0 0.0 -6.668336988995642 -18.937863868095626 8.588311325457886 -10.125254822818242 -7.147598792322838 -14.263420658784453 103.20548270683602 -6.3611093629270335e-15 -77.09284931396367 0.0 0.0 0.0 0.17452936463106775 -17.046655229536476 1.259901719301619 0.0 0.0 0.0 0.0 0.0 0.0 0.0 0.0 0.0 0.0 0.0 0.0 167.17672514244634 3.6159183658994962 -169.16290534871302 128.0449788514768 -1.0398505135475655e-14 6.8188783535309576e-15 -1.9600151806276734e-14 -63.97722288562549 -1.036712990624648e-14 0.0 0.0 0.0 173.29464348000818 0.616845499779943 -176.41883470898057 -41.18173570626624 2.056140764385135e-14 9.42358948928184e-15 -180.0 -44.12205291922496 -180.0 -3.1805546814635176e-15 1.3241718894150476e-31 -4.770832022195277e-15 -3.70948318004097 -1.0244239432273385e-14 -5.306245853008676e-16 0.0 0.0 0.0
60.53256168365479 8.742845463752747 475.9345281600952 0.09876921541677161 -74.4099119704184 -3.111083931556515 2.7932366041845706 -14.900451977323707 -2.397175080991712 17.421946126751845 -14.62680890548076 13.362594944602263 -111.15861018048243 6.3611093629270335e-15 81.58416696393564 0.0 0.0 0.0 -6.662519457709623 -18.96986600677561 8.637963986443125 -10.169041949487026 -7.165698323468998 -14.379990103252984 103.23396824058217 -6.3611093629270335e-15 -77.12750084364016 0.0 0.0 0.0 0.17953927208979176 -17.090694669391738 1.2643934374131338 0.0 0.0 -9.93923337957349e-17 0.0 0.0 -9.93923337957349e-17 0.0 0.0 -9.93923337957349e-17 0.0 0.0 -9.93923337957349e-17 167.01156115749166 3.8631331798039144 -169.26478639103092 128.2870720538499 1.2448083949875987e-14 1.807177544247351e-14 -2.5035634527305818e-14 -72.95357593342453 -2.0487420028372452e-14 0.0 0.0 0.0 173.3099228749862 0.3465469306091103 -176.5116966216675 -41.31308977365383 -8.785765125590944e-15 -5.0117887687694176e-15 -180.0 -44.94477080725891 -180.0 -3.1805546814635176e-15 6.620859447075238e-32 -2.3854160110976384e-15 -3.735773169788779 8.495119855292825e-16 8.232659595961901e-16 -1.987846675914698e-16 3.4483642953516864e-34 -1.987846675914698e-16
60.53095400333405 8.736319085955621 475.93587455749514 0.13079467106888665 -74.39490003385193 -3.088180458243107 2.7962779580656525 -14.91523504887575 -2.391152461975453 17.430036170377864 -14.629094701094273 13.352008583772314 -111.23050034237141 3.1805546814635168e-15 81.57394910156955 0.0 0.0 0.0 -6.648805943174396 -18.97650676308312 8.66785611696841 -10.191277428359058 -7.175775893511257 -14.420387086207606 103.20415942511511 9.54166404439055e-15 -77.13323704268838 0.0 0.0 0.0 0.1831329195933487 -17.10938908648161 1.2764819873774969 0.0 0.0 -9.93923337957349e-17 0.0 0.0 -9.93923337957349e-17 0.0 0.0 -9.93923337957349e-17 0.0 0.0 -9.93923337957349e-17 167.0165153516728 3.944787514873319 -169.31009778165074 128.38584862871903 -3.995896814562483e-15 -6.348437492979498e-15 -2.5571906626252085e-14 -76.2411755567994 -1.198010098774694e-14 -3.180554681463516e-15 4.4139062980501586e-32 -1.590277340731758e-15 173.3304787810315 0.25945165182907226 -176.5657059496228 -41.50539794031152 2.1028900492046848e-15 -2.6044045756467372e-15 180.0 -46.14279856825153 180.0 0.0 0.0 -1.5902773407317584e-15 -3.7844478626167013 2.216127011326046e-15 2.721085293509813e-16 -1.987846675914698e-16 0.0 0.0
60.528969740867616 8.72842387855053 475.9371242523194 0.16500341150355702 -74.37417430806335 -3.065407149980347 2.8015156899134497 -14.935980308367458 -2.382517005750815 17.439534463729398 -14.632477936785758 13.341260869423566 -111.30805551040505 3.1805546814635168e-15 81.5648201684925 0.0 0.0 0.0 -6.630270942689842 -18.984266187142616 8.699830609737965 -10.222759964973687 -7.192514037839527 -14.466145218597267 103.1732559831983 0.0 -77.14750757291547 0.0 0.0 0.0 0.18750739106255998 -17.134326398136164 1.2912952550594006 -1.3470173028717525e-36 1.5530052155583582e-18 9.939233379573492e-17 -1.3470173028717525e-36 1.5530052155583582e-18 9.939233379573492e-17 -1.3470173028717525e-36 1.5530052155583582e-18 9.939233379573492e-17 -1.3470173028717525e-36 1.5530052155583582e-18 9.939233379573492e-17 167.0351451045167 3.965784403919064 -169.35130734653794 128.4462557449653 8.105381295636624e-15 -2.1563824642174185e-15 1.3576550033606439e-14 -78.20311992568988 2.8369796476598704e-15 -1.5902773407317584e-15 -2.758691436281349e-32 1.987846675914698e-15 173.3530191157272 0.167740975996957 -176.62756183409914 -41.70819139680227 -1.1786843797860618e-15 2.9545051909976705e-15 -180.0 -47.42424950914885 -180.0 1.5902773407317584e-15 0.0 0.0 -3.834127699987877 -8.988647580272154e-15 -8.975520963521754e-16 0.0 0.0 1.987846675914698e-16
60.526684212684636 8.719315937161445 475.93824005126953 0.19969127561648384 -74.34944575012528 -3.0437696203552056 2.8088721862349315 -14.960974788911752 -2.3718482698795507 17.44842941356031 -14.635785739335898 13.333916950451949 -111.3808269404267 0.0 81.55915075609208 0.0 0.0 0.0 -6.6082177210707105 -18.992330623640164 8.730589901821237 -10.262768095688058 -7.216122998746351 -14.51295283175966 103.14606608853225 6.3611093629270335e-15 -77.17196160698963 0.0 0.0 0.0 0.19249793014469432 -17.16333992718796 1.3078617320626413 1.987846675914698e-16 1.5530052155583582e-18 1.987846675914698e-16 1.987846675914698e-16 1.5530052155583582e-18 1.987846675914698e-16 1.987846675914698e-16 1.5530052155583582e-18 1.987846675914698e-16 1.987846675914698e-16 1.5530052155583582e-18 1.987846675914698e-16 167.05942839070894 3.980158200313743 -169.39049083528673 128.5065970979564 -8.635074821933969e-17 1.7904997165990098e-16 1.3902044871553913e-14 -78.6575383926567 3.166788198078444e-15 1.5902773407317584e-15 1.6552148617688095e-32 1.1927080055488188e-15 173.37033014578424 0.08659685220315919 -176.69011268532057 -41.91647611873827 -4.5705812216880606e-15 -5.1565436975170075e-15 -180.0 -48.76013107923772 180.0 0.0 0.0 0.0 -3.8823708508214696 -1.3267470342276387e-14 -4.496749854098279e-16 -1.987846675914698e-16 1.2424041724466862e-17 2.155227684594804e-35
